<svg xmlns="http://www.w3.org/2000/svg" width="52.75" height="36.219" viewBox="0 0 52.75 36.219">
  <defs>
    <style>
      .cls-1 {
        fill: #b02d2d;
        stroke: #b02d2d;
        stroke-width: 2px;
        fill-rule: evenodd;
      }
    </style>
  </defs>
  <path class="cls-1" d="M407.806,66.4l15.013-26a0.79,0.79,0,0,1,1.369.79l-15.014,26A0.79,0.79,0,1,1,407.806,66.4Zm32.185,0-15.013-26a0.79,0.79,0,1,0-1.369.79l15.013,26A0.79,0.79,0,1,0,439.991,66.4Zm-32.152.034H426.5a0.527,0.527,0,0,1,.527.527V67.5a0.527,0.527,0,0,1-.527.527H407.839a0.526,0.526,0,0,1-.526-0.527v-0.54A0.526,0.526,0,0,1,407.839,66.438Zm1.322-32.213,19,32.9a0.655,0.655,0,0,1-1.135.655l-19-32.9A0.655,0.655,0,1,1,409.161,34.225Zm-0.895.306-18.824,32.6a0.649,0.649,0,1,0,1.124.649l18.824-32.6A0.649,0.649,0,1,0,408.266,34.531Z" transform="translate(-388.344 -32.906)"/>
</svg>
