<?xml version="1.0" encoding="utf-8"?>
<!-- Generator: Adobe Illustrator 25.2.1, SVG Export Plug-In . SVG Version: 6.00 Build 0)  -->
<svg version="1.1" id="svg8" xmlns="http://www.w3.org/2000/svg" xmlns:xlink="http://www.w3.org/1999/xlink" x="0px" y="0px"
	 viewBox="0 0 1000 1000" style="enable-background:new 0 0 1000 1000;" xml:space="preserve">
<style type="text/css">
	.st0{fill:#11153D;}
	.st1{opacity:0.2;enable-background:new    ;}
	.st2{fill:#FFFFFF;}
</style>
<g id="layer1" transform="translate(0,-32.41665)">
	<circle id="path815" class="st0" cx="503.5" cy="536" r="428.5"/>
	<path id="path893" class="st1" d="M746.5,294.5l1.6,435.3L700,777.9L263,780.1l179.5,179.5c20.2,3.1,40.6,4.7,61,4.9
		C740.1,964.5,932,772.7,932,536c-0.1-20.4-1.7-40.8-4.8-60.9L746.5,294.5z"/>
	<path id="rect868" class="st2" d="M328.7,265.6c-52.6,0-95.7,43.1-95.7,95.7v349.5c0,52.6,43.1,95.7,95.7,95.7h349.5
		c52.6,0,95.7-43.1,95.7-95.7V361.3c0-52.6-43.1-95.7-95.7-95.7H328.7z M328.7,315.6h349.5c25.8,0,45.7,20,45.7,45.7v349.5
		c0,25.8-20,45.7-45.7,45.7H328.7c-25.8,0-45.7-20-45.7-45.7V361.3C283,335.5,303,315.6,328.7,315.6z"/>
	<path id="path870" class="st2" d="M503.5,400c-74.8,0-136,61.2-136,136s61.2,136,136,136s136-61.2,136-136S578.3,400,503.5,400z
		 M503.5,450c47.8,0,86,38.2,86,86s-38.2,86-86,86s-86-38.2-86-86S455.7,450,503.5,450z"/>
	<circle id="path874" class="st2" cx="649.9" cy="388.8" r="29"/>
	<path id="rect902" class="st2" d="M314.9,297h375.7c25.5,0,46.2,20.6,46.2,46v388.9c0,25.4-20.7,46-46.2,46H314.9
		c-25.5,0-46.2-20.6-46.2-46V343C268.7,317.6,289.4,297,314.9,297z"/>
	<path id="path898" class="st0" d="M503.5,400c-74.8,0-136,61.2-136,136s61.2,136,136,136s136-61.2,136-136S578.3,400,503.5,400z
		 M503.5,450c47.8,0,86,38.2,86,86s-38.2,86-86,86s-86-38.2-86-86S455.7,450,503.5,450z"/>
	<circle id="circle900" class="st0" cx="669.9" cy="368.8" r="29"/>
</g>
</svg>
